<svg xmlns="http://www.w3.org/2000/svg" xmlns:xlink="http://www.w3.org/1999/xlink" viewBox="0 0 237.59 170.65"><defs><style>.cls-1{fill:none;}.cls-2{fill:#2f1a70;}.cls-3{clip-path:url(#clip-path);}.cls-4{fill:#cf0a84;}.cls-5{fill:#2e2f78;}.cls-6{fill:#9c56cb;}.cls-7{fill:#4afffa;}.cls-8{fill:#572c7e;}.cls-9{fill:#e61926;}.cls-10{fill:#802781;}.cls-11{fill:#1b2b70;}.cls-12{fill:#fa76dd;}.cls-13{fill:#e6f6ab;}.cls-14{fill:#35a4bf;}.cls-15{fill:#f7c306;}.cls-16{fill:#1f437e;}.cls-17{fill:#f9a39f;}.cls-18{fill:#131b4a;}.cls-19{fill:#6797ad;}.cls-20{fill:#3374f2;}.cls-21{fill:#f09f17;}.cls-22{fill:#00759b;}.cls-23{fill:#989eb2;}</style><clipPath id="clip-path" transform="translate(77.72 47.6)"><path class="cls-1" d="M25.15,9A36.66,36.66,0,0,1,41.39,5.64,36.69,36.69,0,0,1,57.63,9a26,26,0,0,1,10.8,9.51,44.92,44.92,0,0,1,5.81,14,77.68,77.68,0,0,1,1.85,17.73A77.59,77.59,0,0,1,74.24,68a45,45,0,0,1-5.81,14,26.06,26.06,0,0,1-10.8,9.51,36.83,36.83,0,0,1-16.24,3.33,36.8,36.8,0,0,1-16.24-3.33A26.09,26.09,0,0,1,14.34,82,45,45,0,0,1,8.53,68,77.59,77.59,0,0,1,6.68,50.23,77.68,77.68,0,0,1,8.53,32.5a44.92,44.92,0,0,1,5.81-14A26,26,0,0,1,25.15,9ZM47.62,26.82a13.11,13.11,0,0,0-6.23-1.42,13.12,13.12,0,0,0-6.24,1.42,11.19,11.19,0,0,0-4.08,3.52,17.6,17.6,0,0,0-2.28,5.56,39.49,39.49,0,0,0-1.11,6.67q-.25,3.21-.25,7.66t.25,7.65a39.16,39.16,0,0,0,1.11,6.67,17.5,17.5,0,0,0,2.28,5.56,11.09,11.09,0,0,0,4.08,3.52,13,13,0,0,0,6.24,1.42,13,13,0,0,0,6.23-1.42,11.09,11.09,0,0,0,4.08-3.52A17.28,17.28,0,0,0,54,64.55a40.23,40.23,0,0,0,1.12-6.67q.24-3.21.24-7.65t-.24-7.66A40.58,40.58,0,0,0,54,35.9a17.37,17.37,0,0,0-2.28-5.56A11.19,11.19,0,0,0,47.62,26.82Z"/></clipPath></defs><g id="Layer_2" data-name="Layer 2"><g id="Layer_01b" data-name="Layer 01b"><path class="cls-2" d="M25.15,9A36.66,36.66,0,0,1,41.39,5.64,36.69,36.69,0,0,1,57.63,9a26,26,0,0,1,10.8,9.51,44.92,44.92,0,0,1,5.81,14,77.68,77.68,0,0,1,1.85,17.73A77.59,77.59,0,0,1,74.24,68a45,45,0,0,1-5.81,14,26.06,26.06,0,0,1-10.8,9.51,36.83,36.83,0,0,1-16.24,3.33,36.8,36.8,0,0,1-16.24-3.33A26.09,26.09,0,0,1,14.34,82,45,45,0,0,1,8.53,68,77.59,77.59,0,0,1,6.68,50.23,77.68,77.68,0,0,1,8.53,32.5a44.92,44.92,0,0,1,5.81-14A26,26,0,0,1,25.15,9ZM47.62,26.82a13.11,13.11,0,0,0-6.23-1.42,13.12,13.12,0,0,0-6.24,1.42,11.19,11.19,0,0,0-4.08,3.52,17.6,17.6,0,0,0-2.28,5.56,39.49,39.49,0,0,0-1.11,6.67q-.25,3.21-.25,7.66t.25,7.65a39.16,39.16,0,0,0,1.11,6.67,17.5,17.5,0,0,0,2.28,5.56,11.09,11.09,0,0,0,4.08,3.52,13,13,0,0,0,6.24,1.42,13,13,0,0,0,6.23-1.42,11.09,11.09,0,0,0,4.08-3.52A17.28,17.28,0,0,0,54,64.55a40.23,40.23,0,0,0,1.12-6.67q.24-3.21.24-7.65t-.24-7.66A40.58,40.58,0,0,0,54,35.9a17.37,17.37,0,0,0-2.28-5.56A11.19,11.19,0,0,0,47.62,26.82Z" transform="translate(77.72 47.6)"/><g class="cls-3"><path class="cls-4" d="M66.2,52l-7.05,7.6c-6.38.54-7.93,7.22-12.63,10C44,71.08,43.42,73,46.36,75c2.75,1.89,2.19,3.87-.33,5.53-1.53,1-3.16,1.87-4.7,2.86C35,87.54,27.79,90,21.11,93.43l-6.29.75C11.56,92.08,9.56,95.29,7,96a62.91,62.91,0,0,1-12.79.68c-1.3-1.72-2.21-.94-3,.48l-7.61-.29c-.6-.46-1.15-1.21-1.82-1.34-8.15-1.6-16.39-3.08-22.95-8.68-2.48-2.11-5.08.37-7.38-1,2.11-5,6.23-7.84,10.51-10.86,6.4-4.52,13.67-6.76,20.84-9.37a2.52,2.52,0,0,0,3.18-1.95L-11,62.4c2.83.73,4.37-.56,5-3.21l1.26-.95c4.53-.75,8.3-3.11,11.76-5.9a36.57,36.57,0,0,1,10.22-5.83A74.82,74.82,0,0,0,35.64,36c10-7.37,17.64-17.16,27-25.22C67,7.05,71.07,3,75-1.2c2.39-2.52,4.89-5.46-.34-8-1.93-.93-2.38-2.79-1.52-4.73,4.09-9.29,7.45-19,16.1-25.52,2.24-1.68,4.53-3.21,7.13-2.21,3.17,1.22,2.84,4.71,3.29,7.42.18,1.13-.58,2.53-1.19,3.66-1.9,3.54-.34,7.25-.37,10.81,0,2,2.26,1.13,3.44-.14l3-.35a13.83,13.83,0,0,0,9.65,3.84c3.32,2.07,6.39,4.6,10.13,5.92,4.43,1.55,5.74,1,6.46-3.55a16.3,16.3,0,0,1,4.41-8.9c5.17-5.63,8-13.2,14.79-17.59.82-.54.73-2.41,1.17-3.62.65-1.8,1.68-3.34,3.81-3.47,1.81-.11,3,.35,2.33,2.69-.78,2.87-3.27,3.86-5.7,5.15,1.7,4,4.66,6.6,6.19,10.25,3,7.22,3.15,8.13-2.61,13.12-.6.51-1.11,1.11-1.66,1.68-4.21.95-7.25,3.94-10.62,6.29-5.85,4.08-5.58,5.87,1.14,9.46-1.13,1.21-3.7,1.72-2.34,4.19,2.4,4.32.54,8-2.52,10.5-5.72,4.76-11.95,8.91-18.34,13.59-.77-9.5-.65-9.17-8.83-6.24a67.63,67.63,0,0,0-16.29,9,20.7,20.7,0,0,1-6.2,3.29c-7.38,2.05-13.2,6-17.18,12.64-.49.82-1.56,1.3-2.36,1.93C67.9,49.14,66.26,49.13,66.2,52Z" transform="translate(77.72 47.6)"/><path class="cls-5" d="M33.4,33.71c1.94.74,3-.61,3.77-1.9a6.76,6.76,0,0,1,5.16-3.15c2-.33,4.12-2.2,5.92-.63,2,1.77-.1,3.84-.53,5.77-.12.51-.49,1.07-.37,1.51,2,7.43-3.5,9.56-8.33,12.69-7.44,4.84-14.65,10.1-21.64,15.58C5.49,72.9-6.94,80.72-22.38,82.81c-6.38.86-12.11,5.13-19,4-1.8-.31-3.65-.35-5.47-.55s-3.55-.81-3.58-3.28A4.89,4.89,0,0,0-51.25,80c-1.3-1.55-3.68-2.37-3.64-4.8,0-2.71,2.6-3.87,4.15-5.45,6-6.19,9.92-13.94,15.5-20.47,5.4-6.32,10.63-12.77,16.67-18.48,2.78-2.64,5.75-3.69,9.93-2.1a48.25,48.25,0,0,0,17,3c3.24,0,6.14.67,7.74,4.18,1.28,2.8,3.39,3.89,6.21,1.44,1.76-1.52,3.82-1.19,6-.68,2.49.6,4.72.26,5.2-2.94Z" transform="translate(77.72 47.6)"/><path class="cls-6" d="M-48.6,85.92c2.3,1.34,4.9-1.14,7.38,1,6.56,5.6,14.8,7.08,23,8.68.67.13,1.22.88,1.82,1.34-1.58,1-5.84-.58-4.37,3.41,2,5.51,7.1,7.93,13.17,7.1,2.82-.39,5.6-1.18,8.49-.51-.07,1.5-.14,3-.2,4.5-6.12,6.06-13.9,7.63-22.09,8.46-12.21,1.23-24.34,2.38-36.1-2.67-1.83-.78-4.08-.58-6.14-.83,1.86-5.05,7.12-1.2,10.53-3.79-3.21-4.18-4.08-10.17-11-9.86-.88-3.52,2-4.64,4-6.28l2,1.57c9,5.86,17.64,12.37,29,12.86a6.85,6.85,0,0,1,2.82,1.35c2.45,1.5,4.87,1.39,5.84-1.38.86-2.44-2-2.63-3.46-3.39-7.92-4-17.26-5.54-22.73-13.74a4.25,4.25,0,0,0-6.28-1.13L-55,90.46c1.4-1.75,2.76-3.53,4.92-4.44.62.86,1.25,2.12,1.76-.06Z" transform="translate(77.72 47.6)"/><path class="cls-7" d="M.64,111.41c.06-1.5.13-3,.2-4.5,7-2.5,14.73-2.8,20.74-7.8,3.12.47,5.51-1.3,8.09-2.56,10.64-5.2,20.35-12,30.38-18.17,5.22-3.23,11-6.1,14.58-11.49C84.52,62.1,93,55.15,102.08,49.07c4.89-3.27,9.65-6.74,15-10.5-.89,5-4.52,8.7-16.22,17.21q-16,10.06-32.05,20.13c-1.62,1-2.9,2.17-2.71,4.29l-.51.5a10.94,10.94,0,0,0-10.14,6.58c-11.7,7.93-24.31,14.1-37.09,20.08C12.54,110.09,7.21,112.87.64,111.41Z" transform="translate(77.72 47.6)"/><path class="cls-8" d="M74.63,66.89C71,72.28,65.27,75.15,60.05,78.38c-10,6.2-19.74,13-30.38,18.17-2.58,1.26-5,3-8.09,2.56-.16-1.89-.31-3.79-.47-5.68C27.79,90,35,87.54,41.33,83.41c1.54-1,3.17-1.85,4.7-2.86,2.52-1.66,3.08-3.64.33-5.53-2.94-2-2.35-3.94.16-5.41,4.7-2.75,6.25-9.43,12.63-10-.25,3-4.25,3.9-4.07,7.49,4.22,1.09,7.51-1.31,11-2.6a23.54,23.54,0,0,0,3.29-2.08c1.59-.91,3.41-2.1,5-.7S75,65.14,74.63,66.89Z" transform="translate(77.72 47.6)"/><path class="cls-9" d="M-64.12,102.72c6.88-.31,7.75,5.68,11,9.86-3.41,2.59-8.67-1.26-10.53,3.79a56.45,56.45,0,0,1-14,6.67c1.7-5.73,5.43-8.71,7.48-12.56,2.61.33.88,3.12,2.46,3.5,1.38.33,2.59-.76,3.14-1.91.83-1.74,2.71-3.45.9-5.66l-1.38-3.32A1.09,1.09,0,0,1-64.12,102.72Z" transform="translate(77.72 47.6)"/><path class="cls-9" d="M-58.72,94.89A9.73,9.73,0,0,1-55,90.46l2.07,2.11-3.78,4Z" transform="translate(77.72 47.6)"/><path class="cls-10" d="M-65.12,103.09l1.38,3.32C-65.84,106-67.46,105.36-65.12,103.09Z" transform="translate(77.72 47.6)"/><path class="cls-11" d="M-60.1,96.44l1.39-1.54,2,1.71L-58.14,98Z" transform="translate(77.72 47.6)"/><path class="cls-12" d="M-48.33,86c-.51,2.18-1.14.92-1.76.06Z" transform="translate(77.72 47.6)"/><path class="cls-13" d="M21.11,93.43c.16,1.89.31,3.79.47,5.68-6,5-13.79,5.3-20.74,7.8-2.89-.67-5.67.12-8.49.51-6.07.83-11.14-1.59-13.17-7.1-1.47-4,2.79-2.37,4.37-3.41l7.61.29a2.78,2.78,0,0,0,3-.48A62.91,62.91,0,0,0,7,96c3.2,1.83,5.61.35,7.85-1.86Z" transform="translate(77.72 47.6)"/><path class="cls-14" d="M14.82,94.18C12.58,96.39,10.17,97.87,7,96,9.56,95.29,11.56,92.08,14.82,94.18Z" transform="translate(77.72 47.6)"/><path class="cls-10" d="M-5.82,96.72a2.78,2.78,0,0,1-3,.48C-8,95.78-7.12,95-5.82,96.72Z" transform="translate(77.72 47.6)"/><path class="cls-11" d="M-58.14,98l1.42-1.4,3.78-4a4.25,4.25,0,0,1,6.28,1.14c5.47,8.2,14.81,9.74,22.73,13.74,1.5.76,4.32,1,3.46,3.39-1,2.77-3.39,2.88-5.84,1.38a6.85,6.85,0,0,0-2.82-1.35C-40.5,110.38-49.17,103.87-58.14,98Z" transform="translate(77.72 47.6)"/></g><path class="cls-15" d="M47,68.15a3,3,0,0,1-3-.62,11.86,11.86,0,0,0-1.23-1.32,2,2,0,0,0-2.49-.29,1.86,1.86,0,0,0-.43,2.44c.18.42.31.85.47,1.28,0,0-.12.4-.13.4l-.79-.2-3-2.45c-1.34,3.45-3.69,4.65-7.08,3.4.54-3.49,3.59-4.74,6-6.4,2.21-1.5,2.83-3,1.44-5.34a.71.71,0,0,1,.34-1.13c1.27.19,1.45,2,2.88,2,.66-.26,1.1-1,.93-1.44-1.34-3.61.87-4.1,3.58-4.35.74-.07,1.42-.64,2.16-.73,3.71-.46,7.41-1.51,11,.93,1.56,1.06,2.88,2.17,2.33,4-.66,2.21-2.36,1.19-3.77.62-.75-.3-1.55-.48-1.83.55a1.69,1.69,0,0,0,.91,1.94c1,.62,2.31.88,3.11,1.91a1.76,1.76,0,0,1-.77,2.93c-1.6.58-3.12-1.28-4.35-.43s-.94,2.94-2.92,3.07l-.92,0A2.46,2.46,0,0,0,47,68.15Zm-.25-6.93a.77.77,0,0,0-.12,1.17,1,1,0,0,0,.77.34c.61-.12.54-.62.41-1.08S47.22,60.91,46.76,61.22Z" transform="translate(77.72 47.6)"/><path class="cls-12" d="M24.07,98.37c.62-1.6,2.89-2.89,1.41-4.9s-3.63-1-5.51-.58c-3.3.74-5.6,2.94-7.59,5.54-1,1.32-.72,2.57,0,3.84l3.41-1.5c2.72-3.3,2.72-3.3,5.75-1.14Z" transform="translate(77.72 47.6)"/><path class="cls-16" d="M60,75.77c1.74-.54,3.49-1.06,5.23-1.62a1.37,1.37,0,0,0,1.09-1.29A1,1,0,0,0,65,72c-2.14.51-3.64-.54-5.42-1.52A7.13,7.13,0,0,0,53,70.12c-1.72.9-2.52-.25-3.65-.84-.33,1.93,1,4-.75,5.88-.28.29,0,1.19.14,1.77.33,1.1.32,2.83,2,2.58s.65-1.73.69-2.71c.17-4.08,2-5.47,5.87-5C59.8,72.18,60,73.81,60,75.77Z" transform="translate(77.72 47.6)"/><path class="cls-12" d="M120.34,77.58c-3.6-5-8.84-4.23-14.9-4.59a9.11,9.11,0,0,0,5.28,3.2c2.76.88,5.72,1.11,8.32,2.53Z" transform="translate(77.72 47.6)"/><path class="cls-17" d="M93.86,66c-1.29,1.45-3.6.76-5,2.49,1,1.22,2.17.48,3.24.53,2.53.12,1.87,1.35.86,2.66a4.1,4.1,0,0,0,2.52.16c-.17-1.87-.35-3.75-.52-5.62Z" transform="translate(77.72 47.6)"/><path class="cls-10" d="M21.59,99.63c-3-2.16-3-2.16-5.75,1.14A13,13,0,0,0,21.59,99.63Z" transform="translate(77.72 47.6)"/><path class="cls-18" d="M44,67.53a11.86,11.86,0,0,0-1.23-1.32,2,2,0,0,0-2.49-.29,1.86,1.86,0,0,0-.43,2.44c.18.42.31.85.47,1.28C42,69.68,43,68.54,44,67.53Z" transform="translate(77.72 47.6)"/><path class="cls-19" d="M69.87,47.93c1.87,1.3,2.79,3,4.57,3.77,1.44.64,2.64,2.56,4.06,0a.78.78,0,0,1,1.22-.15c2.51,2.27,5.86,1.09,8.68,2.14a2.85,2.85,0,0,0,3.73-1.87c.44-1.08-.48-5.22-1.27-5.61A3.23,3.23,0,0,0,89.1,46c-.58.08-1.14.68-1.69.65a57.54,57.54,0,0,0-13.3.55c-.94.17-1.84-.84-2.63-1.63-1.76-1.75-3.56-1.57-4,.71-.59,3.09-2.33,3.1-4.64,2.93-1.06-.08-2.39-.06-2.61,1.29-.28,1.66,1.07,1.87,2.34,2.15C67.1,53.58,68.46,52.79,69.87,47.93Z" transform="translate(77.72 47.6)"/><path class="cls-20" d="M23.57,53c3.14.6,3.34,3.73,4.9,5.68.82,1,.79,3,2.49,3a14.4,14.4,0,0,0,5.3-1.18c1.05-.47.38-1.72-.35-2.27-2.4-1.8-1.74-3.18.87-4.4-2.66-1.53-4.59-3.66-7.6-.93-1.31,1.18-3.09-.54-4.54-1.33A1.46,1.46,0,0,0,23.57,53Z" transform="translate(77.72 47.6)"/><path class="cls-8" d="M96.55,38.9a16.24,16.24,0,0,0,5.69,5.23,9.43,9.43,0,0,1,5.05,6.23c.68,3,2.94,3.63,5.31,1.58.66-.57,1.62-1,1.58-2.65a34.49,34.49,0,0,1-10.9-8.42,6.28,6.28,0,0,0-6.73-1.95Z" transform="translate(77.72 47.6)"/><path class="cls-21" d="M39.44,69.84l-3-2.45c-1.34,3.45-3.69,4.65-7.08,3.4L27,71.38a1.1,1.1,0,0,1-1.29,0l-.9.51c-.4,1.43-1.73,1.58-2.81,2.1a30.89,30.89,0,0,0-3.21,1.73A2,2,0,0,0,17.67,78c.48,1.35,1.69,1,2.74.81a9.76,9.76,0,0,0,4.16-1.84c.84-.67,1.73-1.34,2.88-.57a3.78,3.78,0,0,1,2.19-.77A52.05,52.05,0,0,1,39.44,69.84Z" transform="translate(77.72 47.6)"/><path class="cls-21" d="M96.55,38.92c-.63-2.48-.53-5.17-2-7.41-.34-.51-.68-1.16-1.34-1.08-.84.11-1.23.83-1.42,1.62-.33,1.4-.22,3.18.55,4,2,2.07,1,3.79-.1,5.76,2.35.15,2.92-2,4.35-2.87Z" transform="translate(77.72 47.6)"/><path class="cls-7" d="M23.57,53a1.46,1.46,0,0,1,1.07-1.46c-.25-1.43-.18-3.29-2.53-2.22s-4.85,1.18-7.47,2.95c2.74,1,4.92,1.89,7.18,2.49C22.89,55,23.07,53.64,23.57,53Z" transform="translate(77.72 47.6)"/><path class="cls-22" d="M82.08,69.84a7.88,7.88,0,0,0-.64-1.08c-1-.89-7.23-.17-7.83,1A1.48,1.48,0,0,0,74.44,72c1.67.73,5.65-.19,6.92-1.61C81.66,70,82,69.63,82.08,69.84Z" transform="translate(77.72 47.6)"/><path class="cls-12" d="M95.12,62.91a45.75,45.75,0,0,0,.82-10.19c-2.34,2-3.53,3.67-2.52,6.39a23.68,23.68,0,0,1,.74,3.6Z" transform="translate(77.72 47.6)"/><path class="cls-7" d="M111.61,69.7a10.1,10.1,0,0,0-9.26-.5c3,.65,6,1.67,9.14,1Z" transform="translate(77.72 47.6)"/><path class="cls-4" d="M82.68,55.24c0-.23.21-.54.11-.69a.53.53,0,0,0-1,0,.74.74,0,0,0,.12.72C82.09,55.34,82.43,55.24,82.68,55.24Z" transform="translate(77.72 47.6)"/><path class="cls-5" d="M94.16,62.71a2.67,2.67,0,0,0,.09,2l.53.14.33-2Z" transform="translate(77.72 47.6)"/><path class="cls-22" d="M111.49,70.15c.77,0,.66-.14.12-.45Z" transform="translate(77.72 47.6)"/><path class="cls-7" d="M125.89,66.11c-.43,0-.83.12-.88.59s.32.66.75.72C125.8,67,125.85,66.55,125.89,66.11Z" transform="translate(77.72 47.6)"/><path class="cls-14" d="M25.72,71.33a1.1,1.1,0,0,0,1.29,0A1,1,0,0,0,25.72,71.33Z" transform="translate(77.72 47.6)"/><path class="cls-10" d="M94.93,66.21l-.15-1.32-.53-.14L93.86,66Z" transform="translate(77.72 47.6)"/><path class="cls-5" d="M29.64,75.6a3.78,3.78,0,0,0-2.19.77,9.72,9.72,0,0,1-4.63,4.91,7.83,7.83,0,0,0-1.23.61c-1.51,1.22-3.77,2.23-3.16,4.58s2.3,3.45,4.89,3.27a8.7,8.7,0,0,1,3.54.84c2,.77,3.51.79,4.25-1.69.67-2.24.13-4-1.89-5a5.38,5.38,0,0,0-1.36-.19c-.46-.09-.87-.27-.84-1,.84-1.4,2.35-.86,3.65-1,1.12-.08,2.19-.26,2.54-1.53a2.62,2.62,0,0,0-1.42-3.09C31,76.69,30,76.63,29.64,75.6Z" transform="translate(77.72 47.6)"/><path class="cls-10" d="M47.82,61.65c-.25-.4-.6-.74-1.06-.43a.77.77,0,0,0-.12,1.17,1,1,0,0,0,.77.34C48,62.61,48,62.11,47.82,61.65Z" transform="translate(77.72 47.6)"/><path class="cls-23" d="M11.06,42.78a2.56,2.56,0,0,1-.39,0,2.39,2.39,0,0,1-1.74-1.2,1.64,1.64,0,0,1,2.35-2.18,28.74,28.74,0,0,0,3.86-3.26c3.07-2.89,4.89-4.51,6.72-4.24a2.39,2.39,0,0,1,1.74,1.2,1.64,1.64,0,0,1-2.35,2.18,27.55,27.55,0,0,0-3.86,3.26C14.53,41.19,12.75,42.78,11.06,42.78Z" transform="translate(77.72 47.6)"/><path class="cls-23" d="M2.36,47.81l-.3,0a2,2,0,0,1-1.41-1c-3-5.24,5.08-10.52,13.66-16.11C20.08,27,27.92,21.86,27,19.23c-1.35.4-4.67,3.52-6.71,5.44-4.42,4.15-7.25,6.68-9.65,6.33a2.8,2.8,0,0,1-2.05-1.42c-2.92-5,4.75-10.2,12.87-15.66,4.08-2.74,9.25-6.21,11.22-8.82-1,.91-1.9,1.54-2.93,1.39a2,2,0,0,1-1.42-1A1.66,1.66,0,0,1,29,3.27,1.69,1.69,0,0,1,30,3.07c.34-.27.81-.71,1.12-1C32.47.82,33.51-.16,34.77,0a2,2,0,0,1,1.42,1C39.1,6.05,31.43,11.2,23.31,16.65c-5.41,3.64-12.77,8.58-12,11.05,1.35-.39,4.68-3.51,6.71-5.43,4.42-4.15,7.25-6.68,9.66-6.33a2.84,2.84,0,0,1,2.05,1.42c3,5.24-5.09,10.52-13.67,16.11C11.66,36.36,6,40,4,42.78c1-.9,1.87-1.52,2.89-1.37a2,2,0,0,1,1.41,1,1.65,1.65,0,0,1-.6,2.25,1.61,1.61,0,0,1-1,.2c-.33.26-.77.68-1.08,1C4.43,46.91,3.47,47.81,2.36,47.81Z" transform="translate(77.72 47.6)"/></g></g></svg>