<svg xmlns="http://www.w3.org/2000/svg" xmlns:xlink="http://www.w3.org/1999/xlink" viewBox="0 0 201.59 142.52"><defs><style>.cls-1{fill:none;}.cls-2{fill:#2f1a70;}.cls-3{clip-path:url(#clip-path);}.cls-4{fill:#00adee;}.cls-5{fill:#ec7920;}.cls-6{fill:#e6f6ab;}.cls-7{fill:#1b2b70;}.cls-8{fill:#6797ad;}.cls-9{fill:#f4cf8b;}.cls-10{fill:#2e2f78;}.cls-11{fill:#b3bb54;}.cls-12{fill:#2941a6;}.cls-13{fill:#504eaa;}.cls-14{fill:#cf0a84;}.cls-15{fill:#00a551;}.cls-16{fill:#f09f17;}.cls-17{fill:#1f437e;}.cls-18{fill:#572c7e;}.cls-19{fill:#00759b;}.cls-20{fill:#35a4bf;}.cls-21{fill:#4afffa;}.cls-22{fill:#f9a39f;}.cls-23{fill:#9c56cb;}.cls-24{fill:#00aac1;}.cls-25{fill:#131b4a;}.cls-26{fill:#436e8d;}.cls-27{fill:#802781;}</style><clipPath id="clip-path" transform="translate(47.8 31.69)"><path class="cls-1" d="M65,92.2v-16H23.46V59.1l39-55.82H86.08V57.87H96.21V76.15H86.08v16Zm1.48-34.33V27.24L46.93,57.87Z"/></clipPath></defs><g id="Layer_2" data-name="Layer 2"><g id="Layer_01a" data-name="Layer 01a"><path class="cls-2" d="M65,92.2v-16H23.46V59.1l39-55.82H86.08V57.87H96.21V76.15H86.08v16Zm1.48-34.33V27.24L46.93,57.87Z" transform="translate(47.8 31.69)"/><g class="cls-3"><path class="cls-4" d="M72.36,41.81c-.11-1.23-.21-2.47-.32-3.71,1.77-1.84,3.52-4.08,1.79-6.45-1.36-1.87-3.84-.73-5.91-.37-3.23.56-6.17,3.85-9.86,1.34,0-5.72,2.94-8.53,8.2-9.16,5-.6,9.33-2.21,11.55-7.37-4.26-3.39-9-4.61-13.27-2.82-12.89,5.42-26.14,4.37-39.47,3.44C16.6,13.83,11.93,7.3,7.37,0c-3.91-6.26-9.82-6.31-15-1-2.07,2.1-4,3.7-6.82,4.33-2.47.55-3.22,2.44-3,4.81A15.3,15.3,0,0,1-31.52,19.57c-10.27.26-10.27.26-16.26,4C-48.13,13.41-44.11,6.9-34.5,2.08c7.55-3.78,14.71-7.73,23.13-9,1.39-.2,2.89-1.13,4.1-.8C1.5-5.34,9.15-9.12,17.16-11.55a270.39,270.39,0,0,1,36.19-8c10.3-1.62,10.3-1.65,11.14-12.14,3.32-.07,2.88,2.3,2.82,4.39-.08,2.82-.65,5.72-.21,8.46,1.12,7,3.5,8.67,10.7,8.22,4.59-.29,9.17-.91,13.76-1,10.12-.1,14,3.18,15.8,13.4a4.94,4.94,0,0,0,2.91,4c2.21,1,4.94.76,7.23,3.16-1.31,3.62-6.21,2.44-8,5.35-5.14,1.47-7.35,4.59-5.93,10,.78,3,1.2,6.05,1.78,9.08l0,0Z" transform="translate(47.8 31.69)"/><path class="cls-5" d="M44.31,98.63l-3.4,1.88c-.3,0-.74-.11-.87,0a6.21,6.21,0,0,0-.72,1.29l.31-.19c-3.6.64-6.08,3.18-8.77,5.29-6.56,5.16-6.52,5.2-14.66.1l4.85-2.19c9.5-4.27,10.56-6.16,10.07-16.13-.28-5.7-3-5.62-6.93-3.4-5.21-7-5.07-15.23-5.1-23.41a8.63,8.63,0,0,1,2.73-6.46c4.76-5.11,4.43-6.57-1.68-10.2-3.94-2.34-8.57-3.79-9.29-9.28,5.59-2.29,11.87-3.33,15.78-8.67,3.94-1.73,5.59,1,7.67,3.58,7.45,9.09,15.39,11,26.24,6.69,1-.39,2.49-.82,2.65-1.51,2-8.16,8-6.79,14-6.45,4.57.27,9-1.31,13.22-3.31,6.48-3.09,6.59-3.21,3.28-9.81-1-2-2.52-4.26-.51-5.68,6.67-4.7,5-9.56.25-14.28,1.27-.85,2-1.66,2.34-1.52,8.85,3.47,17.73,6,27.26,2.42,1-.37,2.59.79,3.9,1.24-4.56,4.69-13.44,5.75-12,15.08-3.43,0-6.27-.32-9,0-4.41.59-5.53,2.74-3.63,6.56a19.38,19.38,0,0,0,3.07,4.3c3.37,3.66,2.38,6.5-1.78,8.21-8.28,3.4-8.84,10.34-8.23,17.63.31,3.77,3.38,8.33,2.08,11-2.22,4.56-7.76-.38-11.65,1.44-7.67,3.6-15.08,1.65-22.51-1-2.47-.88-5-3.09-7.76-.57-.06.79-.38,1.61-.11,2.12C61.7,75.3,61,77.49,48.42,81c-4.6,1.27-7.64,3.9-8.94,8.14s1.86,3.56,4.4,3.17A9.88,9.88,0,0,1,44.31,98.63Z" transform="translate(47.8 31.69)"/><path class="cls-6" d="M43.88,92.26c-2.54.39-5.68,1-4.4-3.17s4.34-6.87,8.94-8.14C61,77.49,61.7,75.3,55.36,63.47c-.27-.51,0-1.33.11-2.12,2.73-2.52,5.29-.31,7.76.57,7.43,2.66,14.84,4.61,22.51,1,3.89-1.82,9.43,3.12,11.65-1.44,1.3-2.67-1.77-7.23-2.08-11-.61-7.29,0-14.23,8.23-17.63,4.16-1.71,5.15-4.55,1.78-8.21a19.38,19.38,0,0,1-3.07-4.3c-1.9-3.82-.78-6,3.63-6.56,2.75-.36,5.59,0,9,0-1.42-9.33,7.46-10.39,12-15.08,5,1.48,8.51,5.07,12.39,8.18.16,1.15,1,2.42,1.88,1.85s.05-1.81-.78-2.51c1.74-3.05,4.35-3.39,7.1-1.82s5.76,3.14,6.23,6.77c.33,2.55-.74,4.11-3.59,3.57-1.36-.25-2.81-1.26-4-1-2.36.55-5,1.54-5.45,4.31s2.21,3,4,4c2.41,1.32,5.19,2.33,7.06,5.72-3.37,1.54-8-2-10.38,2.22-.3.54-1.47,1.25-1.62,1.13-10.44-8.65-18,5.69-27.91,3.53-3.58-.77-7.1,2.75-8.37,7-1.41,4.69,1.94,7.23,4.73,9.83,1.23,1.14,3.08,1.6,4.91,2.49C110,64.2,105.44,74.5,110.89,85.4a4.22,4.22,0,0,1-4.3-1.1c-5.08-4.12-5-4.16-9.06,1.19-.4.54-.81,1.27-1.37,1.48-11.53,4.22-22.94,10-35.34,3a3.43,3.43,0,0,1-.52-.33c-2,1.46-4.15.5-6-.14C50.06,88,46.8,89.29,43.88,92.26Z" transform="translate(47.8 31.69)"/><path class="cls-6" d="M-47.78,23.53c6-3.7,6-3.7,16.26-4A15.3,15.3,0,0,0-17.44,8.13c4.27,1.55,8.1-2.06,12.3-1.05,3.62.86,8,.29,9.93,4.59C6.91,16.42.9,16.54-.31,19.49c2.48,3.39,6.17.93,8.77,2.44,1.08,6.53-1.08,11.41-6.84,15C-.19,38-2.66,40.36-.14,43c2.13,2.22,4.55,1,6.57-.6,3.54-2.87,7-5.83,10.5-8.75,2,1.38,5,2.74,3.83,5.57-1.58,3.92-4,7.59-8.79,8.4C6.41,48.55.8,49.21-4.75,50.2c-4.16.74-8.26,1.8-12.38,2.72C-18,51.46-19,50-19.87,48.56c3.4-1.34,9.71-.77,8.84-5.49-1-5.42-6.76-3.1-10.74-2.45C-24.21,41-26.55,42-29,42.35-41.2,44.19-48.18,37.15-47.78,23.53Z" transform="translate(47.8 31.69)"/><path class="cls-7" d="M25.07,16.71c13.33.93,26.58,2,39.47-3.44,4.26-1.79,9-.57,13.27,2.82-2.22,5.16-6.5,6.77-11.55,7.37-5.26.63-8.24,3.44-8.2,9.16,3.69,2.51,6.63-.78,9.86-1.34,2.07-.36,4.55-1.5,5.91.37,1.73,2.37,0,4.61-1.79,6.45-4.2-.05-8.4-.15-12.6-.13-2.92,0-6-.25-7.38-3-4.81-9.66-13-10.63-22.29-9.29q-2.5-3.94-5-7.88l-.18-.63Z" transform="translate(47.8 31.69)"/><path class="cls-8" d="M24.19,85.32c3.95-2.22,6.65-2.3,6.93,3.4.49,10-.57,11.86-10.07,16.13L16.2,107-19,79.05c1.44-3.47,3.6-2.24,5.19-1A122.15,122.15,0,0,1-2.39,87.33C6.41,95.71,12,96,20.91,88,22,87.05,23.1,86.2,24.19,85.32Z" transform="translate(47.8 31.69)"/><path class="cls-6" d="M-19.87,48.56C-19,50-18,51.46-17.13,52.92c.15,3.79,3.28,3.72,5.8,4.76,4.72,2,2.23,3.87-.35,5.6-5.33,1.3-10.88,2-15.33,5.66l-5.65.77c-2.59-6.1-.26-12,.63-18,1,.08,2.31-.19,3.1.3C-24.31,54.85-21.71,52.8-19.87,48.56Z" transform="translate(47.8 31.69)"/><path class="cls-9" d="M16.93,33.64c-3.5,2.92-7,5.88-10.5,8.75C4.41,44,2,45.21-.14,43c-2.52-2.63,0-5,1.76-6.08,5.76-3.57,7.92-8.45,6.84-15C14,23.89,19,26.19,16.93,33.64Z" transform="translate(47.8 31.69)"/><path class="cls-10" d="M72.36,41.81l33-8.33c-.65,6.84-4.63,9.93-11.28,10.2-6,.25-12,.69-18,1C74.08,44.79,72.7,43.94,72.36,41.81Z" transform="translate(47.8 31.69)"/><path class="cls-11" d="M24.75,17.77q2.52,3.93,5,7.88c-.34.92-.68,2.62-1,2.63-3.94.06-3.8-3.94-5.58-6.05C21.54,20.34,22,18.47,24.75,17.77Z" transform="translate(47.8 31.69)"/><path class="cls-12" d="M39.32,101.84a6.21,6.21,0,0,1,.72-1.29c.13-.15.57,0,.87,0a10.65,10.65,0,0,1-.87,1.11C39.88,101.77,39.56,101.77,39.32,101.84Z" transform="translate(47.8 31.69)"/></g><path class="cls-5" d="M69.16,69.52c.88-2.23,2.35-2.27,3.6-2.75,9.27-3.56,13.39-1.54,16.52,7.78,1.34,4-.27,6.68-3.21,8.79-1.9,1.37-3.82,1-5-1.37C76.79,73.35,76.77,73.35,69.16,69.52Z" transform="translate(47.8 31.69)"/><path class="cls-13" d="M24,94.28c-2.53-5.17-1.93-11-8.7-8.26-2.66,1.07-5-1.94-4.79-5.09s3-3.44,5.37-3.23c3.94.34,9.15-2.1,11.53,1.67C30.12,83.6,27.22,88.2,24,94.28Z" transform="translate(47.8 31.69)"/><path class="cls-14" d="M58.61,77.79c-4.59.15-9,1-12.07,4.84-1.42-2-1.35-3.71-.48-4.54,3.48-3.34,6.11-6.88,6.44-12,.16-2.57,2.09-4.56,5-3.58,2.54.87,2.08,3.29,1.28,5.17-1.2,2.84-3,5.53,0,8.33l-.08.89Z" transform="translate(47.8 31.69)"/><path class="cls-15" d="M122,19.82c0,2.73,3.64,6.4-2.29,7.62-2.42.5-3.18,4.49-6.54,3.91.65-8.56,2.18-10.89,8-12.27C121.47,19.32,121.73,19.57,122,19.82Z" transform="translate(47.8 31.69)"/><path class="cls-16" d="M118.66,3a11.29,11.29,0,0,0,6-3c.8.59,1.62,1.18,2.44,1.76l1.11,3.39c0,1.43,0,2.85,0,4.28l-.79.22-4.69-.06c-2.11-2.22-4.25-.61-6.38-.06C115.49,6.78,113.71,3.7,118.66,3Z" transform="translate(47.8 31.69)"/><path class="cls-11" d="M130.47,23.54c.46-2.64,2.13-3.22,3.48-4.1,1.6-1.06,2.88-3.08,5.14-2.38a3,3,0,0,1,1.3,2.38c-.06,3.07-3,3.18-4.93,4.18C134.09,24.34,132.37,25,130.47,23.54Z" transform="translate(47.8 31.69)"/><path class="cls-9" d="M70.35,86.74,58.25,88.9c5.43-3.76,8.29-7.87,13.28-3.25Z" transform="translate(47.8 31.69)"/><path class="cls-17" d="M2.43,89.85A2.5,2.5,0,0,1,0,87.21c-.09-1.46.39-2.87,2.08-2.83,1.84,0,3.41,1,3.24,3.12C5.2,89,4,89.72,2.43,89.85Z" transform="translate(47.8 31.69)"/><path class="cls-18" d="M118,11.38c-1.5,5.48-5.15,3.65-8.93,3.1,1.46-4.13,4.5-3,7-3.27A2.74,2.74,0,0,1,118,11.38Z" transform="translate(47.8 31.69)"/><path class="cls-9" d="M122.7,40.51c.44-1.55,1.53-2.17,2.91-1.44a3.17,3.17,0,0,1,1.58,2.17,2.11,2.11,0,0,1-2.58,2.16C123.05,43.21,122.66,41.92,122.7,40.51Z" transform="translate(47.8 31.69)"/><path class="cls-5" d="M127.45,9.65l.79-.22c1.74.17,3.67-.94,5.34.85l-5,4.09-3-.81C126.22,12.26,126.83,11,127.45,9.65Z" transform="translate(47.8 31.69)"/><path class="cls-19" d="M125.6,13.56l3,.81A10.52,10.52,0,0,1,122,19.82c-.26-.25-.52-.5-.79-.74A10,10,0,0,1,125.6,13.56Z" transform="translate(47.8 31.69)"/><path class="cls-12" d="M58.61,77.79l0-.89.08-.89c.93-.42,1.87-.81,2.78-1.26,1.94-1,4.19-1.74,4.72,1.16.42,2.25-1.83,2.35-3.54,2.29C61.31,78.14,60,77.93,58.61,77.79Z" transform="translate(47.8 31.69)"/><path class="cls-20" d="M71.53,85.65a7.12,7.12,0,0,1,.57.82c.61,1.34,2.84,3.21.38,4-2.15.65-1.44-2.37-2.13-3.7Z" transform="translate(47.8 31.69)"/><path class="cls-21" d="M128.15,30.08c1,.23,2,.66,1.24,1.84a3.93,3.93,0,0,1-2.33,1.26c-.42.09-1.42-.56-1.44-.92C125.53,30.59,126.8,30.24,128.15,30.08Z" transform="translate(47.8 31.69)"/><path class="cls-22" d="M94.7,50.2c-.44-.38-1.21-.74-1.24-1.15s.6-1,1-1.45c.43.38,1.2.73,1.22,1.14S95,49.71,94.7,50.2Z" transform="translate(47.8 31.69)"/><path class="cls-18" d="M89.86,40.59c-.37-.46-1.11-1-1-1.38a1.42,1.42,0,0,1,2.23-1,1.72,1.72,0,0,1,.42,1.65C91.28,40.3,90.43,40.37,89.86,40.59Z" transform="translate(47.8 31.69)"/><path class="cls-7" d="M106.32,29.23c-1.18-.21-1.91-.89-1.5-2.07a2,2,0,0,1,1.64-.88c1.16,0,1.93.8,1.5,2C107.8,28.73,106.89,28.92,106.32,29.23Z" transform="translate(47.8 31.69)"/><path class="cls-9" d="M109,5.18a1.87,1.87,0,0,1-2,1.6c-1.44-.11-2.6-.88-2-2.46.26-.62,1.54-1.11,2.37-1.13C108.42,3.17,109,4,109,5.18Z" transform="translate(47.8 31.69)"/><path class="cls-23" d="M54,94.17A1.76,1.76,0,0,1,52.29,96c-1,.06-1.9-.37-1.91-1.46a1.79,1.79,0,0,1,1.74-1.91A1.61,1.61,0,0,1,54,94.17Z" transform="translate(47.8 31.69)"/><path class="cls-4" d="M118,11.38a2.74,2.74,0,0,0-2-.17,4.7,4.7,0,0,1,.4-1.68c2.13-.55,4.27-2.16,6.38.06C121.59,11.35,119.62,11,118,11.38Z" transform="translate(47.8 31.69)"/><path class="cls-9" d="M98.42,93.69c-.28-.78-.06-1.5.73-1.59a1.84,1.84,0,0,1,1.56.77c.15.43-.39,1.11-.62,1.68Z" transform="translate(47.8 31.69)"/><path class="cls-9" d="M103.57,47.22c.29-.95,1.08-1.95,1.87-1.48,1.59,1,.56,2-.46,2.77Q104.31,47.84,103.57,47.22Z" transform="translate(47.8 31.69)"/><path class="cls-7" d="M105,48.51c-.47.3-1.15,1-1.37.84-1-.59-.61-1.4,0-2.13C104.06,47.63,104.53,48.06,105,48.51Z" transform="translate(47.8 31.69)"/><path class="cls-24" d="M103,60.45l-.36,0a2.33,2.33,0,0,1-1.7-1.17,1.58,1.58,0,0,1,.57-2.16,1.56,1.56,0,0,1,1.72.09,28.62,28.62,0,0,0,3.93-3.3c3-2.81,4.9-4.5,6.69-4.24a2.32,2.32,0,0,1,1.7,1.17,1.59,1.59,0,0,1-.58,2.16,1.58,1.58,0,0,1-1.72-.09,27.25,27.25,0,0,0-3.93,3.3C106.52,58.79,104.66,60.45,103,60.45Z" transform="translate(47.8 31.69)"/><path class="cls-24" d="M64.76,84.86a4.77,4.77,0,0,1-.66,0,3.89,3.89,0,0,1-2.85-2,5.11,5.11,0,0,1-.5-4c1.44-5.07,10.41-9.93,19.9-15.08C88.76,59.31,98,54.33,99,50.54a1.29,1.29,0,0,0,0-.19l-.65.61c-1.45,1.36-2.6,2.44-3.9,2.25a2,2,0,0,1-1.41-1,1.58,1.58,0,0,1,.58-2.16,1.56,1.56,0,0,1,1.15-.17c.41-.32,1-.89,1.42-1.27,1.45-1.37,2.6-2.44,3.9-2.25a1.94,1.94,0,0,1,1.41,1,5.06,5.06,0,0,1,.5,4c-.66,2.35-3,4.66-6.16,7a5.13,5.13,0,0,1,1.41,0,3.88,3.88,0,0,1,2.85,2,1.58,1.58,0,1,1-2.74,1.58.73.73,0,0,0-.57-.45c-2.67-.37-9.84,6.34-15.06,11.25C73.85,80.2,68.6,84.86,64.76,84.86ZM86.65,64c-1.46.81-3,1.63-4.49,2.45-8.11,4.39-17.29,9.37-18.36,13.16a1.92,1.92,0,0,0,.19,1.6.75.75,0,0,0,.58.45c2.68.38,9.83-6.34,15.05-11.25C82.24,68,84.57,65.81,86.65,64Z" transform="translate(47.8 31.69)"/><path class="cls-16" d="M47.31,57a1.87,1.87,0,0,1,2.48,1.64,2.48,2.48,0,0,1-1.76,3,1.92,1.92,0,0,1-2.57-1.51A2.56,2.56,0,0,1,47.31,57Z" transform="translate(47.8 31.69)"/><path class="cls-18" d="M42.31,59.05a.71.71,0,0,1-.39.67,4.13,4.13,0,0,1-1.43.7c-.81.09-1,.56-1,1.2a5.36,5.36,0,0,1-.11.79,1.51,1.51,0,0,1-1.86,1.08,1.44,1.44,0,0,1-1.09-1.69,1.73,1.73,0,0,1,1.48-1.69c.82-.08,1.37,0,1.6-1,.16-.79,2-.94,2.64-.34A1.52,1.52,0,0,1,42.31,59.05Z" transform="translate(47.8 31.69)"/><path class="cls-25" d="M24.26,60.45a2,2,0,0,1-2.52-1.4,2.53,2.53,0,0,1,1.7-2.84A2.17,2.17,0,0,1,26,57.64,2.52,2.52,0,0,1,24.26,60.45Z" transform="translate(47.8 31.69)"/><path class="cls-12" d="M60.91,61.64a2.24,2.24,0,0,1,1.35-2.81,1.67,1.67,0,0,1,2.25,1.37,2,2,0,0,1-1.42,2.69A1.66,1.66,0,0,1,60.91,61.64Z" transform="translate(47.8 31.69)"/><path class="cls-7" d="M31.54,67.41a1.72,1.72,0,0,1-2.17-1.28A2.31,2.31,0,0,1,31,63.45a1.82,1.82,0,0,1,2.18,1.32A2.23,2.23,0,0,1,31.54,67.41Z" transform="translate(47.8 31.69)"/><path class="cls-4" d="M56,58a2.17,2.17,0,0,1-1.51,2.7,1.81,1.81,0,0,1-2.22-1.27,2.29,2.29,0,0,1,1.57-2.7A1.7,1.7,0,0,1,56,58Z" transform="translate(47.8 31.69)"/><path class="cls-5" d="M65.77,51.08a1.48,1.48,0,0,1-1.8-.9,2.09,2.09,0,0,1,1.41-2.55,1.18,1.18,0,0,1,1.65,1A2.14,2.14,0,0,1,65.77,51.08Z" transform="translate(47.8 31.69)"/><path class="cls-26" d="M38,66.94a1.39,1.39,0,0,1,1.7,1,1.58,1.58,0,0,1-1.1,1.71,1.25,1.25,0,0,1-1.63-.79A1.6,1.6,0,0,1,38,66.94Z" transform="translate(47.8 31.69)"/><path class="cls-18" d="M63.38,43.64a1.67,1.67,0,0,1-1.09,1.92,1,1,0,0,1-1.3-.69,1.75,1.75,0,0,1,1.19-2C62.88,42.67,63.14,43.13,63.38,43.64Z" transform="translate(47.8 31.69)"/><path class="cls-17" d="M14.64,70.57a1.55,1.55,0,0,1-1.26,1.84A1.3,1.3,0,0,1,12,71.32a1.45,1.45,0,0,1,1.19-1.61A1.23,1.23,0,0,1,14.64,70.57Z" transform="translate(47.8 31.69)"/><path class="cls-6" d="M19.84,56a1.14,1.14,0,0,1-1.48-.7,1.35,1.35,0,0,1,.91-1.74,1.15,1.15,0,0,1,1.49.68A1.42,1.42,0,0,1,19.84,56Z" transform="translate(47.8 31.69)"/><path class="cls-27" d="M26.13,71.27c.23.73-.2,1.64-.78,1.73a1,1,0,0,1-1.19-.79,1.12,1.12,0,0,1,.75-1.44A.88.88,0,0,1,26.13,71.27Z" transform="translate(47.8 31.69)"/><path class="cls-20" d="M44.61,49.41c0,.53-.07,1-.71.94-.18,0-.46-.14-.5-.27-.25-.79-1.49.68-1.44-.65A5.41,5.41,0,0,1,44.24,49,.53.53,0,0,1,44.61,49.41Z" transform="translate(47.8 31.69)"/><path class="cls-15" d="M35.7,56.29c-.05.66-.31,1.16-1.05,1.21-.52,0-1-.16-1-.7a1.21,1.21,0,0,1,.93-1.37C35.14,55.29,35.54,55.68,35.7,56.29Z" transform="translate(47.8 31.69)"/><path class="cls-27" d="M1.5,80.43a.82.82,0,0,1-1-.79c-.1-.64.32-1,.89-1.08s.67.3.78.7A.88.88,0,0,1,1.5,80.43Z" transform="translate(47.8 31.69)"/><path class="cls-15" d="M55.9,62.65a.73.73,0,0,1-1-.46,1,1,0,0,1,.67-1.25c.44-.19.77.09.94.48C56.81,62.05,56.43,62.4,55.9,62.65Z" transform="translate(47.8 31.69)"/><path class="cls-8" d="M48,66.15a.52.52,0,0,1,.62.33.58.58,0,0,1-.39.78.53.53,0,0,1-.75-.4A.61.61,0,0,1,48,66.15Z" transform="translate(47.8 31.69)"/><path class="cls-26" d="M48.81,63.87a.51.51,0,0,1-.53.5.4.4,0,0,1-.41-.53.47.47,0,0,1,.6-.38C48.67,63.51,48.86,63.61,48.81,63.87Z" transform="translate(47.8 31.69)"/><path class="cls-8" d="M59.35,50.59a.47.47,0,0,1-.34.5.37.37,0,0,1-.45-.26.41.41,0,1,1,.79-.24Z" transform="translate(47.8 31.69)"/></g></g></svg>