<svg width="178" height="280" viewBox="0 0 178 280" fill="none" xmlns="http://www.w3.org/2000/svg">
<path d="M154.777 248.459L121.036 132.285" stroke="#0E0F25" stroke-width="4.74234" stroke-miterlimit="10" stroke-linecap="round"/>
<path d="M147.031 221.781L124.442 263.827H39.2926C39.2926 263.827 33.1527 244.651 17.4588 248.459C5.47977 251.365 3.11869 262.193 3.11869 262.193" stroke="#0E0F25" stroke-width="4.74234" stroke-miterlimit="10" stroke-linecap="round"/>
<path d="M174.813 252.301C171.692 248.893 167.205 246.756 162.219 246.756C152.79 246.756 145.147 254.399 145.147 263.828" stroke="#0E0F25" stroke-width="4.74234" stroke-miterlimit="10" stroke-linecap="round"/>
<path d="M162.826 279.266C156.206 279.266 150.839 273.899 150.839 267.279C150.839 260.659 156.206 255.292 162.826 255.292C169.446 255.292 174.813 260.659 174.813 267.279C174.813 273.899 169.446 279.266 162.826 279.266Z" fill="#FF5A3D"/>
<path d="M21.2266 279.266C14.6064 279.266 9.2396 273.899 9.2396 267.279C9.2396 260.659 14.6064 255.292 21.2266 255.292C27.8469 255.292 33.2136 260.659 33.2136 267.279C33.2136 273.899 27.8469 279.266 21.2266 279.266Z" fill="#FF5A3D"/>
<path d="M25.2813 234.115L31.404 238.89L47.5967 225.615L40.6549 220.867L25.2813 234.115Z" fill="#FFB68F"/>
<path d="M34.736 234.277C34.736 234.277 43.7648 247.81 50.2103 254.545C51.9478 256.361 48.4746 260.055 48.4746 260.055L20.5511 239.664C20.0924 239.335 19.9449 238.722 20.2081 238.223C21.1476 236.44 23.9188 231.762 26.2512 231.094C26.7202 230.96 27.1392 231.649 27.5706 232.226C28.0492 232.866 26.9533 236.731 32.9007 236.217C33.4579 236.169 34.0406 234.401 34.736 234.277Z" fill="#FF5A3D"/>
<path d="M58.727 256.004L65.4397 256.036L64.3513 240.798L56.508 240.761L58.727 256.004Z" fill="#FFB68F"/>
<path fill-rule="evenodd" clip-rule="evenodd" d="M48.1296 232.433L35.2542 219.255L52.1591 202.637L75.4042 176.335L53.1736 125.612C53.1736 125.612 69.8475 123.984 71.1795 125.612C72.5115 127.241 72.614 130.57 72.614 130.57L93.3711 177.816L72.5408 205.113L52.1591 227.923L48.1296 232.433Z" fill="#E6E7E8"/>
<path opacity="0.29" d="M52.1593 202.638V227.924L72.541 205.114L71.7976 180.417L52.1593 202.638Z" fill="#0E0F25"/>
<path fill-rule="evenodd" clip-rule="evenodd" d="M68.9174 242.216L53.0302 242.142L55.8921 189.78L40.4201 153.609C37.1057 145.86 36.9177 137.13 39.8956 129.246C39.8956 129.246 40.4405 127.324 42.5922 125.706C44.744 124.087 64.8268 125.111 64.8268 125.111L65.6216 126.463L67.0978 142.88L63.2259 152.38L69.3425 188.712L68.9174 242.216Z" fill="#E6E7E8"/>
<path d="M65.2877 248.799C65.2877 248.799 80.3521 254.94 89.466 256.902C91.9228 257.431 91.1188 262.437 91.1188 262.437L56.5643 261.214C56 261.199 55.5338 260.774 55.4717 260.213C55.2499 258.21 54.9211 252.783 56.4776 250.922C56.7905 250.548 57.524 250.884 58.2047 251.119C58.96 251.381 60.2198 255.195 64.856 251.435C65.2904 251.082 64.7813 249.292 65.2877 248.799Z" fill="#0E0F25"/>
<path d="M131.244 128.652L115.261 132.285L99.2785 135.917" stroke="#0E0F25" stroke-width="8.5362" stroke-miterlimit="10" stroke-linecap="round"/>
<path d="M70.7202 67.1705L72.8667 69.4286L71.2322 74.9485L68.8924 67.7726L70.7202 67.1705Z" fill="#0E0F25"/>
<path d="M118.423 124.125C118.088 124.185 118.143 124.385 118.153 124.584C118.217 125.798 115.321 127.034 116.812 128.378C118.302 129.721 120.889 127.954 122.789 128.947C124.69 129.94 124.336 132.951 123.299 135.036C123.157 135.322 123.408 135.823 123.747 135.838C125.311 135.905 125.767 134.169 125.888 132.847C125.889 133.443 125.671 134.144 125.676 134.725C125.68 135.306 126.261 135.862 126.912 135.338C127.746 134.665 127.959 133.173 127.876 132.109C128.04 132.16 128.454 133.966 129.102 133.046C130.529 131.018 130.14 126.899 127.633 124.269C127.406 124.03 119.934 122.871 118.423 124.125Z" fill="#FFB68F"/>
<path d="M99.6543 129.093C99.3198 129.153 99.3745 129.352 99.385 129.552C99.449 130.766 99.3844 133.997 99.3844 133.997C99.3844 133.997 102.121 132.922 104.021 133.915C105.921 134.907 105.568 137.919 104.531 140.004C104.388 140.29 104.639 140.791 104.979 140.805C106.542 140.872 106.998 139.136 107.12 137.815C107.121 138.41 106.903 139.111 106.907 139.692C106.912 140.273 107.492 140.83 108.143 140.305C108.978 139.632 109.19 138.141 109.107 137.076C109.272 137.127 109.686 138.933 110.333 138.014C111.761 135.986 111.371 131.866 108.865 129.236C108.637 128.998 101.166 127.838 99.6543 129.093Z" fill="#FFB68F"/>
<path d="M124.813 124.668C124.813 124.668 120.591 122.883 117.684 121.365C108.787 116.719 99.3791 102.887 99.3791 102.887L72.8697 73.2375L70.2202 90.7907L91.2643 107.967L116.995 128.52L124.813 124.668Z" fill="#FFB68F"/>
<path d="M63.2812 67.1707C63.2812 67.1707 60.2807 64.8197 53.7744 68.8768C35.3519 80.3645 40.0617 122.013 40.0617 122.013C40.0617 122.013 42.2819 126.967 43.6804 127.381C45.0788 127.795 65.2625 129.388 69.1463 128.152C73.0301 126.916 73.5126 126.321 74.001 117.736L76.8457 84.1681C77.1818 78.2613 74.4331 72.5665 69.5269 69.26C68.1651 68.3421 66.9068 67.7575 65.9715 67.8293C65.7166 67.8488 63.2812 67.1707 63.2812 67.1707Z" fill="#0E0F25"/>
<path d="M101.756 128.519C101.756 128.519 105.084 127.663 105.802 128.049C106.52 128.436 107.734 129.794 107.734 129.794L103.042 129.695L101.756 128.519Z" fill="#FFB68F"/>
<path d="M46.2203 81.6958C47.2022 76.2865 57.2167 74.6304 60.4095 80.3712C60.7974 81.0686 61.1733 81.8432 61.5347 82.6638L61.535 82.6634L61.5374 82.6698C62.3675 84.5558 63.1198 86.6894 63.7603 88.7247L72.7584 113.234L97.6992 128.227L105.554 128.612C105.554 128.612 103.137 134.733 100.05 134.785C96.9639 134.836 64.566 119.085 64.566 119.085L53.4986 100.995C53.4986 100.995 53.4866 100.976 53.4673 100.944C53.4673 100.944 45.5457 85.4127 46.2203 81.6958Z" fill="#FFB68F"/>
<path d="M26.8193 116.931C27.5068 119.608 29.4483 121.791 32.034 122.769C34.8013 123.811 38.308 124.658 40.4613 123.404C40.5953 123.326 40.7207 123.24 40.8375 123.14C44.3095 120.33 42.2773 109.481 42.2773 109.481C42.2773 109.481 42.5714 88.2767 42.8654 85.2846C43.1594 82.288 40.1153 80.3467 38.7922 78.3619C38.5198 77.9512 37.9361 77.6138 37.1362 77.3761C34.0489 76.4507 27.7273 77.0085 23.3905 80.7185C19.0493 84.4327 24.4282 107.57 26.8193 116.931Z" fill="#F2A600"/>
<path d="M53.3508 104.905C53.3508 104.905 48.8091 115.078 41.5405 116.154C40.4447 116.317 41.5405 112.76 41.5405 112.76C41.5405 112.76 43.9939 111.186 45.7327 108.951C47.4714 106.715 50.8146 100.775 50.8146 100.775L53.3508 104.905Z" fill="#F2A600"/>
<path d="M62.8274 38.3591C62.8194 36.7526 62.0972 34.8318 61.0926 33.6592C59.1005 31.3338 56.1135 29.5115 53.2981 29.9615C50.4828 30.4114 50.4681 30.1363 47.8504 32.1485C42.3952 36.3418 36.9889 43.1564 35.3429 50.5879C34.4159 54.7735 33.7996 60.7822 32.8438 64.5213C32.1974 67.05 30.8757 70.6043 29.8464 71.1898C27.1363 72.7308 26.718 71.2293 24.5765 70.8064C26.7058 73.5202 27.2213 74.7245 31.4901 76.2615C32.0306 76.4562 38.6315 77.1795 40.8869 75.7434C42.8637 74.4847 44.6975 70.0292 45.3286 68.4842C49.1191 59.2055 46.6822 49.9384 53.5628 42.5747C55.2299 40.7905 60.2547 39.0708 62.8274 38.3591Z" fill="#121430"/>
<path d="M36.417 107.966C36.417 107.966 35.3037 109.841 31.5043 109.676C27.7049 109.51 25.3772 107.966 25.3772 107.966" fill="#0E0F25"/>
<path opacity="0.35" d="M35.3115 100.504L40.8375 123.14C44.3095 120.329 42.2773 109.481 42.2773 109.481C42.2773 109.481 42.5714 88.2762 42.8654 85.2841C43.1594 82.2875 40.1153 80.3462 38.7922 78.3614C38.5198 77.9507 37.9361 77.6133 37.1362 77.3756C37.1362 77.3756 31.4502 77.8728 30.5638 80.1904C29.6818 82.5081 35.3115 100.504 35.3115 100.504Z" fill="#231F20"/>
<path d="M31.2856 77.2101C31.2856 77.2101 25.3925 79.0295 24.5093 81.3478C23.6261 83.6662 29.2564 101.661 29.2564 101.661" stroke="#0E0F25" stroke-width="0.432391" stroke-miterlimit="10"/>
<path d="M30.6588 77.8732C31.1239 77.6 31.0082 76.8962 30.4792 76.7909C28.5509 76.4075 25.2681 75.9166 24.0523 76.7145C23.8789 76.8283 23.7175 76.9494 23.5672 77.0755C22.4083 78.0476 22.98 79.9335 24.4845 80.0897L25.1819 80.1622C25.3085 80.1753 25.436 80.147 25.5452 80.0814L26.6466 79.4193C26.6466 79.4193 23.3899 78.9985 24.1074 78.2258C24.825 77.453 25.2666 76.9869 26.3706 77.2095C27.2961 77.3961 29.551 77.8142 30.2558 77.9445C30.3947 77.9702 30.537 77.9447 30.6588 77.8732Z" fill="#0E0F25"/>
<path d="M63.3861 83.739C63.3861 83.739 63.8772 69.6218 57.5845 67.5519C51.2919 65.4819 42.5993 72.1334 39.9498 80.358L42.2129 83.8355C42.2129 83.8355 44.6463 73.7203 52.1395 70.7702C56.4157 69.0866 56.6552 70.8086 58.9382 73.0717C61.4479 75.5597 61.583 79.2519 61.583 79.2519L63.3861 83.739Z" fill="#F2A600"/>
<path d="M65.3112 34.9919C64.9468 36.8561 61.4784 38.9614 59.113 39.3813C56.7475 39.8011 55.9862 41.863 55.5664 39.4975C55.1466 37.1321 58.9904 33.6623 61.3558 33.2424C63.7212 32.8226 65.7721 32.6341 65.3112 34.9919Z" fill="#FF5454"/>
<path d="M83.2052 45.3811C83.2052 45.3811 86.8923 41.0766 85.8076 37.8346C84.7229 34.5926 79.2257 25.2691 67.7696 30.3152C67.7696 30.3152 63.2055 29.362 59.1102 35.1185C55.3113 40.4582 51.4739 55.2278 64.0552 57.9744L83.2052 45.3811Z" fill="#121430"/>
<path d="M72.269 62.7527L70.5496 69.0316L68.5717 70.7698L66.8839 65.1367L67.4843 59.6003L72.269 62.7527Z" fill="#121430"/>
<path d="M67.9124 61.4595C67.9124 61.4595 75.8639 64.0337 79.0887 63.1321C83.4915 61.9011 83.9589 43.8615 82.6304 42.8947C81.3018 41.9279 73.4798 36.0375 67.8111 42.572C62.1425 49.1066 63.3547 49.9732 63.3547 49.9732C63.3547 49.9732 58.8245 49.3536 58.2822 52.0576C57.7399 54.7615 60.8415 56.7894 62.5049 56.3538C62.5049 56.3538 63.1887 63.4874 60.9396 66.7166C62.2863 68.8358 69.5765 77.3757 69.5765 77.3757L71.3969 65.9373L67.9124 61.4595Z" fill="#FFB68F"/>
<path d="M79.5577 46.9277C80.291 49.8182 82.4055 52.9059 82.1059 53.3189C81.5901 54.03 79.8859 54.2682 79.7336 54.2277" stroke="#121430" stroke-width="0.472043" stroke-miterlimit="10" stroke-linecap="round"/>
<path d="M72.5806 49.4208C74.7836 47.0984 76.2322 47.6472 76.2322 47.6472" stroke="#121430" stroke-width="0.745696" stroke-miterlimit="10" stroke-linecap="round"/>
<path d="M85.3167 46.2704C83.3463 46.0156 82.5931 46.3709 82.5931 46.3709" stroke="#121430" stroke-width="0.745696" stroke-miterlimit="10" stroke-linecap="round"/>
<path d="M76.0882 50.4997C76.162 50.8364 75.9479 51.1707 75.6077 51.2453C75.5036 51.2681 75.4045 51.2644 75.3071 51.2348C75.0906 51.1767 74.9138 51.0009 74.8628 50.7683C74.8042 50.501 74.9249 50.2381 75.1427 50.103C75.1999 50.065 75.2662 50.0359 75.3391 50.0199C75.6794 49.9454 76.0137 50.1595 76.0882 50.4997Z" fill="#121430"/>
<path d="M84.0357 48.7301C84.1095 49.0668 83.8954 49.4011 83.5587 49.4749C83.2185 49.5495 82.8841 49.3353 82.8103 48.9987C82.7358 48.6585 82.9499 48.3242 83.2901 48.2496C83.6268 48.1758 83.9612 48.3899 84.0357 48.7301Z" fill="#121430"/>
<path d="M79.0903 59.1542C78.4917 59.2344 77.3867 56.9061 77.3296 56.8317L80.6421 56.6287C80.2718 58.052 79.5283 59.0955 79.0903 59.1542Z" fill="white"/>
<path d="M62.1458 49.7829C62.1458 49.7829 65.2287 51.0944 66.5207 50.1199C67.8127 49.1453 69.0798 41.435 72.7255 42.5952C76.3713 43.7554 84.2914 43.7905 87.3304 41.3319C90.3695 38.8733 83.0174 33.3409 83.0174 33.3409C83.0174 33.3409 73.0675 32.3067 71.4129 32.3747C70.2619 32.422 64.2952 34.9771 60.7703 36.5278C59.3125 37.1692 58.6392 38.8582 59.2513 40.3286L62.1458 49.7829Z" fill="#121430"/>
<path d="M59.6189 67.1705L60.6676 62.4184C60.6676 62.4184 68.3219 66.6135 68.6623 69.1527C69.0027 71.6918 70.217 77.3762 70.217 77.3762L68.6623 79.4749L59.6189 67.1705Z" fill="#0E0F25"/>
</svg>
